<svg style="position: absolute; width: 0; height: 0;" width="0" height="0" version="1.1" xmlns="http://www.w3.org/2000/svg" xmlns:xlink="http://www.w3.org/1999/xlink"><defs><symbol id="xmark" viewBox="0 -64 512 512"><path d="M343 297 q9 10 9 23 l0 0 q0 13 -9 23 q-10 9 -23 9 q-13 0 -23 -9 l-105 -106 l-105 106 q-10 9 -23 9 q-13 0 -23 -9 q-9 -10 -9 -23 q0 -13 9 -23 l106 -105 l-106 -105 q-9 -10 -9 -23 q0 -13 9 -23 q10 -9 23 -9 q13 0 23 9 l105 106 l105 -106 q10 -9 23 -9 q13 0 23 9 q9 10 9 23 q0 13 -9 23 l-106 105 l106 105 l0 0 Z"></path></symbol></defs></svg>