<?xml version="1.0" encoding="utf-8"?><!DOCTYPE svg PUBLIC "-//W3C//DTD SVG 1.1//EN" "http://www.w3.org/Graphics/SVG/1.1/DTD/svg11.dtd"><svg id="arrows-up-to-line" width="128" height="128" style="width:128px;height:128px;" version="1.1" xmlns="http://www.w3.org/2000/svg" viewBox="0 0 512 512" enable-background="new 0 0 512 512" xml:space="preserve"><path fill="#666" d="M28.44 56.89 l455.12 0 q12.44 0 20.44 -8 q8 -8 8 -20.45 q0 -12.44 -8 -20.44 q-8 -8 -20.44 -8 l-455.12 0 q-12.44 0 -20.44 8 q-8 8 -8 20.44 q0 12.45 8 20.45 q8 8 20.44 8 l0 0 ZM8 178.67 q-8 8.89 -8 20.44 l0 0 q0 11.56 8 20.45 q8.89 8 20.44 8 q11.56 0 20.45 -8 l36.44 -37.34 l0 187.56 q0 12.44 8 20.44 q8 8 20.45 8 q12.44 0 20.44 -8 q8 -8 8 -20.44 l0 -187.56 l36.45 37.34 q8.89 8 20.44 8 q11.56 0 20.45 -8 q8 -8.89 8 -20.45 q0 -11.55 -8 -20.44 l-85.34 -85.34 q-8.89 -8 -20.44 -8 q-11.56 0 -20.45 8 l-85.33 85.34 l0 0 ZM292.44 219.56 q8.89 8 20.45 8 l0 0 q11.55 0 20.44 -8 l36.45 -37.34 l0 187.56 q0 12.44 8 20.44 q8 8 20.44 8 q12.45 0 20.45 -8 q8 -8 8 -20.44 l0 -187.56 l36.44 37.34 q8.89 8 20.45 8 q11.55 0 20.44 -8 q8 -8.89 8 -20.45 q0 -11.55 -8 -20.44 l-85.33 -85.34 q-8.89 -8 -20.45 -8 q-11.55 0 -20.44 8 l-85.34 85.34 q-8 8.89 -8 20.44 q0 11.56 8 20.45 l0 0 Z"/></svg>