<?xml version="1.0" encoding="utf-8"?><!DOCTYPE svg PUBLIC "-//W3C//DTD SVG 1.1//EN" "http://www.w3.org/Graphics/SVG/1.1/DTD/svg11.dtd"><svg id="arrow-rotate-right" width="128" height="128" style="width:128px;height:128px;" version="1.1" xmlns="http://www.w3.org/2000/svg" viewBox="0 0 512 512" enable-background="new 0 0 512 512" xml:space="preserve"><path fill="#666" d="M390.62 141.24 l-55.17 0 q-15.45 0 -25.38 9.93 q-9.93 9.93 -9.93 25.38 q0 15.45 9.93 25.38 q9.93 9.93 25.38 9.93 l141.24 0 q15.45 0 25.38 -9.93 q9.93 -9.93 9.93 -25.38 l0 -141.24 q0 -15.45 -9.93 -25.38 q-9.93 -9.93 -25.38 -9.93 q-15.45 0 -25.38 9.93 q-9.93 9.93 -9.93 25.38 l0 56.28 l-19.86 -18.76 q-48.55 -48.55 -111.45 -65.11 q-62.9 -15.44 -125.79 0 q-62.9 16.56 -111.45 65.11 q-48.55 48.55 -65.11 111.45 q-15.44 62.89 0 125.79 q16.56 62.9 65.11 111.45 q48.55 48.55 111.45 65.1 q62.89 15.45 125.79 0 q62.9 -16.55 111.45 -65.1 q11.03 -9.93 11.03 -24.28 q0 -14.34 -11.03 -25.38 q-9.93 -9.93 -24.28 -9.93 q-14.34 0 -25.38 9.93 q-54.07 51.86 -124.69 51.86 q-70.62 0 -124.69 -51.86 q-51.86 -54.07 -51.86 -124.69 q0 -70.62 51.86 -124.69 q54.07 -51.86 124.69 -51.86 q70.62 0 124.69 51.86 l18.76 18.76 l0 0 Z"/></svg>