<?xml version="1.0" encoding="utf-8"?><!DOCTYPE svg PUBLIC "-//W3C//DTD SVG 1.1//EN" "http://www.w3.org/Graphics/SVG/1.1/DTD/svg11.dtd"><svg id="trash" width="128" height="128" style="width:128px;height:128px;" version="1.1" xmlns="http://www.w3.org/2000/svg" viewBox="0 0 512 512" enable-background="new 0 0 512 512" xml:space="preserve"><path fill="#666" d="M167 18 l-7 14 l-96 0 q-14 0 -23 9 q-9 9 -9 23 q0 14 9 23 q9 9 23 9 l384 0 q14 0 23 -9 q9 -9 9 -23 q0 -14 -9 -23 q-9 -9 -23 -9 l-96 0 l-7 -14 q-9 -17 -29 -18 l-120 0 q-20 1 -29 18 l0 0 ZM448 128 l-384 0 l21 339 q2 19 15 32 q14 13 33 13 l246 0 q19 0 33 -13 q13 -13 15 -32 l21 -339 l0 0 Z"/></svg>