<?xml version="1.0" encoding="utf-8"?><!DOCTYPE svg PUBLIC "-//W3C//DTD SVG 1.1//EN" "http://www.w3.org/Graphics/SVG/1.1/DTD/svg11.dtd"><svg id="xmark" width="128" height="128" style="width:128px;height:128px;" version="1.1" xmlns="http://www.w3.org/2000/svg" viewBox="0 0 512 512" enable-background="new 0 0 512 512" xml:space="preserve"><path fill="#666" d="M497.6 88 q14.4 -16 14.4 -36.8 l0 0 q0 -20.8 -14.4 -36.8 q-16 -14.4 -36.8 -14.4 q-20.8 0 -36.8 14.4 l-168 169.6 l-168 -169.6 q-16 -14.4 -36.8 -14.4 q-20.8 0 -36.8 14.4 q-14.4 16 -14.4 36.8 q0 20.8 14.4 36.8 l169.6 168 l-169.6 168 q-14.4 16 -14.4 36.8 q0 20.8 14.4 36.8 q16 14.4 36.8 14.4 q20.8 0 36.8 -14.4 l168 -169.6 l168 169.6 q16 14.4 36.8 14.4 q20.8 0 36.8 -14.4 q14.4 -16 14.4 -36.8 q0 -20.8 -14.4 -36.8 l-169.6 -168 l169.6 -168 l0 0 Z"/></svg>